<?xml version="1.0" standalone="yes"?>
<svg xmlns="http://www.w3.org/2000/svg" width="80" height="80">
<path style="fill:#242424; stroke:none;" d="M44 26L50 23L45 25C46.2091 20.954 57.8203 5.80885 58.726 17.1628C59.3737 25.283 52.1656 39.2812 47.3231 45.5428C44.3917 49.3334 38.5516 50.8875 34.8665 47.086C27.8671 39.8654 41.7526 29.3491 49 34L50 30L37 32L42 21C29.0102 29.6529 19.9866 46.8441 4 50L12 40L11 46L12 46L13 38C7.37442 40.4668 -1.89395 53.9444 10.0366 50.5796C20.5041 47.6274 28.6433 35.3636 36 28L22.8938 49.203L13 55L21 54L19 69L20 69C20.7837 60.6602 22.7346 54.9858 31 52L31 51L25 51L29 43L30 43C33.3859 52.1506 40.6296 52.1772 49 50L66 17L67 17L55 49L74 16L75 16C73.8693 22.5528 62.0885 50.9999 78 45C65.0713 42.3991 76.1571 23.1343 77 14L68 21L69 14L62 21C61.4057 18.3029 61.3071 14.334 59.3823 12.1839C51.7138 3.61797 44.3225 20.515 44 26z"/>
<path style="fill:#fafafa; stroke:none;" d="M36 32L37 33L36 32z"/>
</svg>
