<?xml version="1.0" encoding="UTF-8" standalone="no"?>
<svg
   width="120"
   height="120"
   version="1.1"
   id="svg273"
   sodipodi:docname="matoscc.svg"
   inkscape:version="1.3.2 (091e20ef0f, 2023-11-25, custom)"
   xmlns:inkscape="http://www.inkscape.org/namespaces/inkscape"
   xmlns:sodipodi="http://sodipodi.sourceforge.net/DTD/sodipodi-0.dtd"
   xmlns="http://www.w3.org/2000/svg"
   xmlns:svg="http://www.w3.org/2000/svg">
  <defs
     id="defs273" />
  <sodipodi:namedview
     id="namedview273"
     pagecolor="#696969"
     bordercolor="#000000"
     borderopacity="0.25"
     inkscape:showpageshadow="2"
     inkscape:pageopacity="0.0"
     inkscape:pagecheckerboard="0"
     inkscape:deskcolor="#d1d1d1"
     inkscape:zoom="10.008333"
     inkscape:cx="59.950044"
     inkscape:cy="60.000002"
     inkscape:window-width="2560"
     inkscape:window-height="1402"
     inkscape:window-x="0"
     inkscape:window-y="0"
     inkscape:window-maximized="1"
     inkscape:current-layer="g273" />
  <path
     fill="none"
     d="M0 0h120v120H0z"
     id="path1"
     inkscape:label="path1"
     style="fill:#666666;fill-opacity:0" />
  <g
     stroke-width=".4"
     id="g273">
    <path
       fill="#2ca828"
       d="m61.4 1.6 5 1c1.2.3 2.4.3 3.9.5h3.1a128.3 128.3 0 0 1 2.3.7l.5.6.4.4V5l.4.3v.2l-.1.6-2-1.7c-.7.4-1.2.8-1.6.8h-5c-.2-.4-.4-.9-.7-1-2-1-4.1-1.8-6.2-2.7z"
       id="path2" />
    <path
       fill="#102806"
       d="M86.3 10.2c.5.4 1 1 1.7 1.3h1c.4.2.7.4.9.7l-1.2.6-1.7 1.6-2.4.8c.2-1 2.1-1.6.7-3l.3-1.4.3-.7h.4z"
       id="path3" />
    <path
       fill="#edc41e"
       d="M100.5 59.8a21 21 0 0 1-2.7 2.4v-.8c1.4-.9 1.6-2 1.7-3.4 0-1 1.1-2 1.8-3l-.7 4-.1.8z"
       id="path4" />
    <path
       fill="#001a4d"
       d="m82.1 48.7 3 1.2c1.2.2 2.7-.5 2.8 1.2H87c-.5-.2-1-.6-1.6-.6l-2.4.3c-.7-.5-1.3-.9-1.7-1.5l.4-.5.3-.1z"
       id="path5" />
    <path
       fill="#433206"
       d="M70 29.5c.3 0 .7.2 1.1.5a4 4 0 0 1-1.1-.5zm8.4-.1-.4.8s-.2 0-.2-.2l.4-.5h.2z"
       id="path6" />
    <path
       fill="#a64021"
       d="m81.2 48.9.3-.1c.1.1 0 .2-.1.3-.1 0-.2 0-.2-.2z"
       id="path7" />
    <path
       fill="#2bae28"
       d="M41.8 3.1c2.2-.1 4.4-.3 6.9-.3l4.5 2 .1-.3-2-2 .5-.6a8 8 0 0 1 2.1 1.3l-.6 3-3.9-.3c-.3 0-.7.7-1 1.2-.9 1.1-1.6 1-2.4.2l-2.3-1.6c-.1-.3-.3-.6-.5-.6l-3.1.5L41.8 3z"
       id="path8" />
    <path
       fill="#22510b"
       d="m54 3-2.2-1.1-.5.5 2 2.1-.1.2-4.3-1.9c1.5-.8 3-1.6 4.8-2.3.4 0 .6.2.9.5l.2 1.4.3.3v.1c0 .2.1.3 0 .4L53.9 3z"
       id="path9" />
    <path
       fill="#dfb717"
       d="M37.4 55.5a123 123 0 0 0 3.7 1.5c.6 0 1 .2 1.7.4 0 .8-.2 1.5-.4 2.2-1-.5-1.8-1.4-2.6-1.5-1.8-.2-2.3-1.1-2.4-2.6z"
       id="path10" />
    <path
       fill="#349521"
       d="m36.5 23.2-4.5 1c0 .2 0 .2-.2.2h-1.3l-.4-1.9c.2-.4.4-.6.7-.8.8.4 1.5.9 2.3 1 1.1.2 2.3.1 3.5.2v.3z"
       id="path11" />
    <path
       fill="#212c04"
       d="M44.3 31h-.8c-.3-.2-.3-.2-.3-.4l4-2V31l-.4.2a76 76 0 0 1-1-.4h-.7l-.5.1-.3.1z"
       id="path12" />
    <path
       fill="#001a4d"
       d="m35 49.9 3.6-1.1.2.1v1l-.6.4-2.2.5-2.5-.5V50H35z"
       id="path13" />
    <path
       fill="#063206"
       d="M61.3 1.6c2.2.9 4.3 1.7 6.3 2.7.3.1.5.6.5 1a3 3 0 0 1-.9.8l-1.1-.5-3.9-.7-1.6-2.6.4-.7h.3z"
       id="path14" />
    <path
       fill="#2ab82a"
       d="M62.3 5c1.2.2 2.5.3 3.8.7l.5 1.1.7-.7.8-.6c1.8-.1 3.5 0 5.2-.2.4 0 .9-.4 1.6-.8l2 1.7.1.1v1.1l-1.3 2.4c-.8 2.6-.8 2.6-4 2L72 10c-1.4.3-2.8.5-4 1-1.2.3-2.2 1-3.4 1.5a7 7 0 0 0-1 0c-.2.2-.3.3-.5.3-1.8-.8-2.2-.6-2.4 1a5 5 0 0 1-1.4 1l-1.2-.1-1.2-2.6-2.6 2.7-1.6.3v-.4l-.5-1.2-3.2 1.7c.7.5 1.1.8 1.5 1.3l-1.3.2c-2.7.1-3.8 1.6-3.3 4v.8l-.5.6c-1.5.3-2.8.6-4 .7-.6-.4-1.1-1-1.7-1-2 0-4 0-6 .2-1.1 0-2 0-1.8-1.3.8-.1 1.7 0 2.2-.4.9-.5 2.6-.7 1.8-2.5l2 .2 5-.2c-1.5-.6-3.2-.3-4.2-1-1.1-.7-2-.9-3-.3-.6.4-.7 1.4-1 2.3 0 0-.1.3-.3.3-.7-.4-1.3-1-2-1.1-2-.1-2.2-1.4-2.4-2.8h.1l.9-.5 4-.6v-.6l-4.6-.2c-.1-1.2.5-1.6 1.7-1.6l3.3-.3L42.8 9v-.6l-3.8.8-3.6.7c.7-.7 1.4-1.5 2.2-2.1.5-.4 1.3-.6 2.3-.9l3.8-1.2c.8.5 1.6.9 2.3 1.5.8.8 1.5 1 2.5-.2 1.9-.6 3.5-1 5 .4.4.6.7 1.3 1.3 1.6.5.2 1.2 0 1.8 0-.2-.5-.3-1.2-.7-1.5l-2.4-1v-.3c0-1 .2-2 .4-3.1.3-.2.7-.1 1.2 0l1-.1-1-.4a1 1 0 0 0-.4-.4V1c.2-.2.4-.2.9 0h1.7c.4.3.7.3 1 .4.3 0 .6.1 1 .5l-1 3.3 2.5 1.3L62.3 5m-1.7 3.2-.7 1.2c.8 0 1.6.2 2.5.1.2 0 .3-.4.5-.7l-2.3-.6M40 15.3c.3.3.8 1 1 .9l3.2-2-.3-.3-4 1.4m7.5-5.7-.1 1.5.7.3 2-1.7-.5-.4-2 .3m10-4.3H57v.1l.3-.1z"
       id="path15" />
    <path
       fill="#2bae28"
       d="M62.2 4.9c-.3.6-.8 1-1.4 1.7a15 15 0 0 0-2.5-1.3l1-3.3c.4 0 .7 0 1.2.2.6 1 1.2 1.7 1.7 2.7zM56.9 1h-1.2H57zm1.3.4c-.2 0-.5 0-.9-.2.2 0 .5 0 .9.2z"
       id="path16" />
    <path
       fill="#f5ce1a"
       d="M64.9 61.5v.4c1 1 2 1.5 3.4.8.3-.2 1-.2 1.2 0 2 1.7 3.8.7 5.7-.1.5-.2 1-.3 1.7-.7l.6-2.7v.1c1 1 1.7 2 2.4 3l-.3 1.3.3.4v.7l-2.5 1.7.8 1.3-1.5.2c.3.7.4 1.5.8 2 .6 1 1.3 1.7 1.9 2.5-1.1-.7-2.2-1.3-3-2.1-.8-.7-1.3-1.6-2-2.5l-3.3-1-5-1c-.8-.4-1.5-.5-1.9-.8-1-.9-1.8-2-2.7-2.9l2.9-2s0-.1 0 0l.5 1.4z"
       id="path17" />
    <path
       fill="#f6cf17"
       d="M77.3 57c.2.4.4.8.5 1.4l-.3.8h-.2l-2 2.3c-1-1.2-2.3-2.3-2.8-3.7-.9-2.4-1.2-5-1.8-7.7 1.3-1 2-2.6 4-2.3.5 0 1.1 0 1.3.2.3.3.3 1 0 1.2-2 1.4-1.2 3-.6 5l.7 1.6.5.4c.1.3.3.3.4.4.1.2.3.3.4.3l-.1.1z"
       id="path18" />
    <path
       fill="#f4d017"
       d="M75.5 61.5c.5-.8 1-1.5 1.8-2.2l-.3 2.5-1.5-.3z"
       id="path19" />
    <path
       fill="#d3c0c0"
       d="M84 113.9h-.6.7zm-1.1-.2c-.1.1-.2 0-.4-.1.1-.1.3 0 .4.1z"
       id="path20" />
    <path
       fill="#2aac2a"
       d="M94.9 23.8c-.6.7-1.1 1.2-1.9 1.8h-.4c-.8-.1-1.5-.2-2 0l-3.3 1.5H86c0-.2-.1-.2-.4-.5l-.3-2.4c1-.3 2.1-.3 3-.6 1.4-.4 2.7-1 4-1.5 2.5-.5 3-.2 2.7 1.7z"
       id="path21" />
    <path
       fill="#106410"
       d="M92.2 22c-1.3.6-2.6 1.2-4 1.6-.9.3-2 .3-3.2.6a2 2 0 0 1-1 .2l-.6-.5-.1-.4-.8-.7-.4-.4h.2c.7-.3 1.3-.4 2-.4.8.3 1.4.5 2.1 1l3.2-.2-1.5-1 .8-.2 1.2-.8.7-.4.2.2.8.7.4.7z"
       id="path22" />
    <path
       fill="#2aac2a"
       d="m87.1 14.4 1.7-1.6 3.4 1.1v.4l-1.2 1-1 .2c-1.3 0-2.7.6-2.9-1.1z"
       id="path23" />
    <path
       fill="#1b6916"
       d="M92.5 18.5c-.1.4-.3.8-.7 1.2l-.9-.1v-3c.5 0 1 0 1.2.2.3.5.3 1.1.4 1.7z"
       id="path24" />
    <path
       fill="#349521"
       d="M92.5 18.3c-.1-.4-.1-1-.4-1.5-.1-.2-.7-.2-1.3-.3-.4-.3-.6-.6-.7-1l.9-.3 1.2-.9c.2 1.2.2 2.5.3 4zm-.3-4.5-3.3-1 1-.5c1 .4 1.6.9 2.3 1.5z"
       id="path25" />
    <path
       fill="#1b6916"
       d="M91.9 21.2c-.4-.1-.6-.3-.8-.6l.8-.1v.7z"
       id="path26" />
    <path
       fill="#106410"
       d="m91.9 20.4-.8.1c-.2 0-.3 0-.3-.2l.1-.6h.8c.2.2.2.4.2.7z"
       id="path27" />
    <path
       fill="#eac122"
       d="m101.9 67.7.1-1.5 6.5 6.5c0 .5-.2.7-.5.8l-2.7-2s0 .1 0 0l-2.6-2.5-.8-1.3z"
       id="path28" />
    <path
       fill="#daab2b"
       d="m108.1 73.6.5-.7c.7 1.2 1.4 2.5 2 4a55 55 0 0 1-4.4 3.3h-.6l1.8-1.9 1-1.2c0-1.3-.2-2.4-.3-3.5z"
       id="path29" />
    <path
       fill="#d09025"
       d="m107 64-2-.6-2.6 1.2c.1-2.3 1.3-2.8 4.8-2 0 .5-.1 1-.3 1.3z"
       id="path30" />
    <path
       fill="#f9d71a"
       d="m85.8 44.4.3-.3a7 7 0 0 1 2.2-.6c1 1-.1 2.6 2 3l.7.1 1-.6 2-.3 1.4-.8L97 44h1.1l2.5.1v.3c-.8.2-1.4.2-2.2.2-.3.4-.5.8-1 1.2-.8.2-2 .3-1.1 1.6l-1 3.1 1.8 1.3h-.4c-2-.2-2-.2-1.5 1l.3.6a9 9 0 0 1-.5 0 2 2 0 0 1-.8 0c-.2-.6-.4-1-.4-1.4v-4.4h-.2l-1.5 5.5-.5.3c-.5 0-.8 0-1.2-.2L89 53l-2.8-.2-1.5-.8 2.1-1H88c1.2-1 1-1.8-.5-2.4l-1.7-1.8h.2c2.1-1-.7-1.6-.2-2.4z"
       id="path31" />
    <path
       fill="#f4d017"
       d="M77.6 59.3c0-.3 0-.5.2-.8l4-2.6a6 6 0 0 1 1.6-.5l6.3-1.4c.2 1.9 1.5 1.1 2.5 1.1v1.1l-.5.7-1 .4-1.7.4c-1.7 0-3.3-1-4.7.3l-2 1 1.9 1.1.1 1.8-3.4-.3c1 1.7-.5 1.5-1.3 1.9l.3-1.3-2.3-2.9z"
       id="path32" />
    <path
       fill="#fbd915"
       d="M79.5 72.4c-.7-.8-1.4-1.5-2-2.4-.4-.6-.5-1.4-.8-2l1.5-.3.1.1h1c2.2-.4 2.6-2 3.4-3.6 1.4.1 2.6.2 3.8.5l2.4.9 1.4.2.6 1.4c.4 3.2 1.7 5.6 5.1 6.9 2.3.8 4 2.6 6.1 4 .9.6 1.5 1.2 2.2 1.9l-3.6.5 1 6.5c.5 1.8.7 3.7 2.8 4.6.4.2.3 1.4.5 2.3-.6 1.6-.7 3.3-3 3.7-.7-.4-1-.8-1.4-1.3a20.9 20.9 0 0 0 1-1.9c1.2-1 .9-1.7-.5-2.4l-.2-.6c-.5-2-2.9-4-5-4.2V86l-3-1.5-1.7-.7v-.1l-.7-5c-.1-1-.6-1.6-1.8-1.2-.8.2-4.6-1-4.8-1.8-.4-1.5-1.8-1.9-3.2-2.5l-1.2-.7z"
       id="path33" />
    <path
       fill="#e9bc1d"
       d="M107 64c0-.5.2-.9.4-1.4 2-.8 3.8-1.3 4.8 1.2 0 .3 1 .3 1.4.6.5.4.8 1 1.1 1.6v.1c-.8 0-1.5-.2-2 0-2 .9-3.6.5-5.2-.7l-.6-1.4z"
       id="path34" />
    <path
       fill="#f9d618"
       d="m94.2 53.4.8.2.4 1.7c.6-.7 1-1.1 1.6-1.5l.6 1.2v.5l.6-.6.2-2h.3l.4 1.4c1.2-2.6-.1-4.5-1.4-6.3l.1-.4 1.7.1 1.1 4.8.9-3.7c1.8 1.8 1.8 2.7-.2 6-.7 1.2-1.8 2.1-1.8 3.2 0 1.4-.3 2.5-1.6 3.4-.2 0-.2.4-.2.8-.1.4-.3.5-.6.8h-1.5s0 .1 0 0l.4-3c0-.4-.2-.8-.6-1.1-.6 0-1 0-1.5-.2.6-.9 2-1.4 1-2.6-.8.4-1.5.8-2.4 1.1a1 1 0 0 1-.3-.5v-.6c.3-.1.3-.2.5-.5l1.5-2.2m2.4 4.8z"
       id="path35" />
    <path
       fill="#f5ce1a"
       d="M98.5 44.5h2c.7.6 1.2 1.2 1.8 2 .2.2.2.3.2.6l-.3.5h-1.1a5 5 0 0 1-1.3-1.2l-1.3-1.9z"
       id="path36" />
    <path
       fill="#dfb717"
       d="m99.7 46.5 1.2 1 .5 1.2-.8 3.8a139.8 139.8 0 0 0-1.2-5.7l.3-.3z"
       id="path37" />
    <path
       fill="#c0490a"
       d="m102.3 47.5.3-.3s0 .2-.3.3z"
       id="path38" />
    <path
       fill="#fcd718"
       d="m93.8 45.7-2 .3a2 2 0 0 1-.5 0s-.1 0 0-.1l-.4-1.1-.4-1.8 2-1.8c.2.1.2.3.3.4l2-.8c.4 0 .9.2 1.3.5l-2.3 4.4z"
       id="path39" />
    <path
       fill="#e9b71a"
       d="M100.7 44c-.9.1-1.6 0-2.5-.1l-1.4-2.5.5-.9 1-.5c.4 1 .6 2.1 2 2.4.3 0 .3 1 .4 1.6z"
       id="path40" />
    <path
       fill="#bd9c0d"
       d="M96.7 41.4c.5.8 1 1.5 1.3 2.4-.3.2-.6.2-1 .2-.8.2-1.3.6-1.8.9-.4.3-.7.6-1.2.8l2.1-4.3h.6z"
       id="path41" />
    <path
       fill="#e9bc1d"
       d="M90.4 43c.2.5.4 1.1.4 1.8l-.7 1.4v.2c-2-.3-.9-2-1.7-3a6 6 0 0 1 2-.4z"
       id="path42" />
    <path
       fill="#f7d61a"
       d="M93.9 58.8c.4 0 .9 0 1.5.2l-1.2 3c-.3 0-.4.2-.5.3l.2.2.5-.5.3 1-3 2.2-1.3.5c-.5 0-1 0-1.5-.3l-5-2.7 1.9-1.4-1.6-1.3-2-1c.8-.3 1.5-.6 2-1 1.5-1.2 3-.2 4.7-.2a25.7 25.7 0 0 1-3.9 1.6l.7-.2 5 .8 3.2-1.2z"
       id="path43" />
    <path
       fill="#c1a20d"
       d="m94.8 63-.4-1h-.1l1.3-3c.2.2.4.6.4 1 0 1-.3 1.9-.4 3-.3.1-.5 0-.8 0z"
       id="path44" />
    <path
       fill="#edc41e"
       d="m95.6 63.2 1.4-.1c-.1 1.1-.7 1-1.4.1z"
       id="path45" />
    <path
       fill="#2ab92a"
       d="M90.9 19.6c0 .3 0 .4-.2.7-.2.2-.3.3-.7.4a5 5 0 0 1-.8-1.8l-1.4.7 1 2-.8.1c-.6 0-1-.2-1.4-.3l-.3 1.4-2-1-.7-1.5-2.5 1.8 1 .3v.1l.4.3v.1l.8.7v.4l.5 1.3-.3.9-.3-.1c-.3 0-.5.2-.8.3a1 1 0 0 1-.4 0l-.5-.1c-.9-1-1.6-2-2.4-3.2-.7-4-4.2-6-7.2-4 2.5.6 3.8 1.4 4.6 3.1.2.5-.2 1.2-.4 1.8-.2 0-.2 0-.3-.2-.3-.7-.5-1.5-1-2-.6-.6-1.5-1-2.1.3h-5.4c-.7.4-1.1.8-1.8 1-1-.5-1.6-2-2.9-.2l.1.9 2.2 1 1.2 1.5a76.4 76.4 0 0 1-4.4.7c-.2 0-.2 0-.3-.3a4 4 0 0 0-.9-.8 1 1 0 0 1-.4-.4.7.7 0 0 0-.5-.3c-.3 0-.5 0-.7-.2l-.4-1.9c-.9-2-2 .2-3-.3L55 22h-5.6a4 4 0 0 1-1.1-.1L47 20.4l2.3-2.2h.4l.9-.4 2.9.4 1.2.4.8.5c1.4.6 2.8 1 4.6 1.6v-2.5l1-.6 1.5-.3.5 1.4h3c.3.6.7 1 1.2 1.5h.5l.9-2.4 4.2-1.1 2-.9.9-1.2-.1-2c.6-1 1-1.7 1.8-2.6 1.7.2 2-.7 2-2l.5-.3 4-.7c.2 0 .4.1.6.4a98.5 98.5 0 0 0 1 3.6l-.4 1.4c-1 .5-1.9 1-2.7 1.2l-5.7 1.1 1.8 1-1.6.7c2 1 5.7.5 7.6-1l2.4-1c.3 1.8 1.7 1.2 3 1.2l.7 1.1c.2 1 .2 1.9.2 3m-9.5-9.9-1 1.5 1.7-.5c.3-.1.7-.3.8-.5l.2-1.4c-.5.2-1 .3-1.4.7 0 0 0 .2-.3.2M51.6 21l1.1-1.6c-.8-.1-1.6-.4-2.3-.3-.4 0-.7.7-1 1.1.6.3 1.2.6 2.2.8m29.8-1.3h-.3.3z"
       id="path46" />
    <path
       fill="#146e14"
       d="m77.4 10-1.7 2.6-1.3.6-2.2.4-1.4-1.1 1-.6c3 .5 3 .5 4-2.2 1.3-.8 2.4-1.4 2-2.8.7 0 1.3 0 2 .3.2.2.2.4.2.5l-.5.4-2.1 2z"
       id="path47" />
    <path
       fill="#2bb729"
       d="m85.3 10.5-.6-3.1c.5.5 1 1.3 1.4 2.2l-.2.5h-.1l-.5.4z"
       id="path48" />
    <path
       fill="#2ca828"
       d="M77.8 6.8c.4 1.5-.7 2.1-1.9 2.8a10.7 10.7 0 0 1 1.7-3l.2.2z"
       id="path49" />
    <path
       fill="#2bb729"
       d="M80.1 7.7v-.5a22 22 0 0 1 3.7-.4c-1 .4-2.3.6-3.7 1z"
       id="path50" />
    <path
       fill="#146e14"
       d="m77.6 6.7-.4.5c-.2 0-.2-.2 0-.5h.3z"
       id="path51" />
    <path
       fill="#2ca828"
       d="M77.5 6.6h-.3c-.2 0-.2-.2-.2-.3h.4l.1.3z"
       id="path52" />
    <path
       fill="#1a7719"
       d="m86 10.1.1-.4.2.4H86z"
       id="path53" />
    <path
       fill="#2ab72a"
       d="m66.1 26.5-1-1.7c.1-.7.3-1.1.6-1.6l1.6-1c3.8 1.8 3.8 1.8 3.4 4.9a15.9 15.9 0 0 1-1.7 1.4c-1.7.4-2.5-.5-2.9-2z"
       id="path54" />
    <path
       fill="#2a9d25"
       d="M77.1 30.2 75 31.6l-1.6.2-1.6-1.5c0-1 .2-2 .5-3 .3-.2.4-.2.6 0l1.8 3.1 2-1c.2.3.3.3.5.4v.4z"
       id="path55" />
    <path
       fill="#1e7b19"
       d="m72.8 27-.6.1h-1.4c.3-3 .3-3-3.3-4.9h2.3a22 22 0 0 1 2.6 2.7l.4 1.2v1z"
       id="path56" />
    <path
       fill="#2ab72a"
       d="m61.8 27.1 3.3-.4c0 .4-.2.7-.6 1.1H64c-1-.2-1.6-.4-2.2-.7z"
       id="path57" />
    <path
       fill="#1e7b19"
       d="M69 28.5c0-.1.1-.2.3-.2l-.2.2z"
       id="path58" />
    <path
       fill="#1a7719"
       d="M84.6 15.2c-2 1.6-5.6 2.1-7.6 1l1.8-.7a243.7 243.7 0 0 1 6.3-3.1c1.6 1.2-.3 1.8-.5 2.8zm.8-4.6c0-.2.2-.3.4-.5 0 .2 0 .4-.2.7l-.2-.2z"
       id="path59" />
    <path
       fill="#b7ae23"
       d="m64.4 60-2.9 2c1 1 1.7 2 2.7 2.9.4.3 1.1.4 1.7.7-.2.2-.4.2-.7.2h-1.4L61.5 64l-.8-1.5.1-.7 1.7-2.6H64l.4.6z"
       id="path60" />
    <path
       fill="#b7ae23"
       d="M65 61.4c-.3-.3-.4-.7-.6-1.3.2.3.4.7.5 1.3z"
       id="path61" />
    <path
       fill="#b69f4f"
       d="m100.5 96.5 1.3 1.1c0 .2-.1.2-.3.3-1.5-.5-3-1-4.5-1.7-.1-.6-.2-1.2 0-2l3.3-.2 1 .5v.2l-.8 1.8z"
       id="path62" />
    <path
       fill="#ddb31d"
       d="M85.7 44.4c-.4.8 2.4 1.3.3 2.4l-1.5-.5-.2-.6v-.4l.4-.4s.2 0 .3-.2l.7-.3zm1.8 4.2-2.3.1H85l-.3-.4 1-1.5a14 14 0 0 1 1.8 1.8z"
       id="path63" />
    <path
       fill="#242505"
       d="m77.2 30.2-.1-.5V29c0-.7.2-1.2.5-2l.4-2.5 1.1-1.2 2.5 3.1.3.2h.2l.4-.1.8-.3.4.1 1 .6-.4.6c-3.3-.7-5-.3-6 2l-.5.6-.6.2z"
       id="path64" />
    <path
       fill="#289224"
       d="m87.5 27.1 3-1.5c.6-.2 1.3-.1 2 0l.3.3-1.1 1.7c-1.7 1.2-3.4 1.7-5.2.3l1-.8z"
       id="path65" />
    <path
       fill="#1e4208"
       d="m84.8 26.8-1-.5c-.2-.4-.1-.6 0-1l.3-.9h.8c.3.6.4 1.3.6 2.2l-.7.2zm2.5.3c-.1.3-.4.5-.9.7l-.5-.7h1.4z"
       id="path66" />
    <path
       fill="#433206"
       d="m92.8 25.8-.1-.1h.2v.1z"
       id="path67" />
    <path
       fill="#212c04"
       d="m73.4 31.9 1.4-.2v.3l-1.4-.1z"
       id="path68" />
    <path
       fill="#983a08"
       d="M77.4 56.9c-.1 0-.3 0-.4-.2l.4.2zm-.4-.4c-.1 0-.3 0-.4-.2l.4.2zm-.5-.5-.3-.1s.2 0 .3.2z"
       id="path69" />
    <path
       fill="#fbd816"
       d="M19.1 54.6a24.2 24.2 0 0 1-1.3-2.3c0-.7 0-1.4.3-2.2.7.8 1.1 1.7 1.7 2.5.2.3.8.3 1.2.6v.7l1.2 1.7.4-.2c0-.4-.2-.8-.1-1.2l1.5.1.8 1.9v.4c-.1.1-.1.2 0 .4l.6.3.3.1.8 1.2c0 2 1.5 2.7 3.2 2.8 1 0 2-.4 3-.7l.5.5-.2.3h.5c.5.2 1 .3 1.4.6l-2.3 2.8.5.4 2.5-2.3 2.7 2.3 2.1 2.6 1.4-.1h.4l2-.4.4.4v.5l-.6.7c-.2.1-.2.2-.2.5 0 .2 0 .4-.2.6l-1 .7-.2.1c-.2.1-.2.2-.3.5l-.5.2a31.6 31.6 0 0 0-2.6 3.1 4 4 0 0 1-1.2.3l-2.4 1.3c-2-.6-2.3-.3-1.8 2l.1.7.4.5v.7c-.2.1-.2.2.1.3l.9-.8 1.2-1.2c.2 0 .3-.2.5-.3h.8l2.5.7v5.2c0 1.4-.5 1.9-2 1.4 0-.3-.2-.5-.3-.8-.9-2.6-3-3.5-5.4-4 1.3-2-1-1.4-1.5-2l-.7 3.9a51 51 0 0 0-1.4 2l-2.4 2c-1.6.9-2.9 1.8-4.3 2.9l-.8 1.4c-2.3.3-1.8 1.8-1.9 3.2l1.2 1.7c-.5.7-1 1.2-1.8 1.8l-1 .5-.9-.4-1.7-5.3v-.8l2.2-1.4 1.3-2.9c.4-1.6.9-3.2 1.1-4.8 0-.2-.6-.5-1-.9a2 2 0 0 0-.4-1.2l-2-1.2 1.5-1h.2c2-1.3 3.5-3 5.6-3.8a9 9 0 0 0 5.9-6c.8-1 1.6-2 2-2.8l-1.3-2.5a38.4 38.4 0 0 1-2.1.4v-.1c-1.2-1.6-2.3-3-3.4-4.7L23 56.5l-.5.4 1.4 2 1.3 3.6a7 7 0 0 1-1.7.9c0-.2-.1-.2-.3-.4l-1-1.3H22l-1.4-2 .2-.1h.7c.2-.2.3-.5.3-.9l-1.2-.8V57c-.3-.6-.7-1.1-1.2-1.6V55l-.3-.4m9 27c-.8-.1-.8-.1-.7 1.7l.8-1.7m-.9-3.2.6 1.9.6-.3c-.3-.6-.6-1-1.2-1.6m4.4-.5v-.6h-.2c0 .2 0 .4.2.6z"
       id="path70" />
    <path
       fill="#dfb029"
       d="m16.4 79.3 2 1.2a3 3 0 0 1-1.6.4h-1.3l-.4-.1-1-.7c-3.6-1-4.7-3.6-2.7-6.5l.4.9a64 64 0 0 0 0 2.2c.5 2.6 2.6 2.6 4.6 2.6z"
       id="path71" />
    <path
       fill="#f3ce19"
       d="m20.6 59.6-.6-.1c-.2-.3-.2-.5-.2-.9.2-.4.3-.7.6-1 .2 0 .2.1.2.5v1.5z"
       id="path72" />
    <path
       fill="#146e14"
       d="M53.4 7.4c-1.4-1.2-3-.9-4.8-.4.1-.4.5-1 .8-1.1l3.9.3.2.5-.1.7z"
       id="path73" />
    <path
       fill="#1b6916"
       d="M43.7 5.7c-1.1.5-2.3.8-3.7 1.2V6l3.2-.8c.2 0 .4.3.5.6z"
       id="path74" />
    <path
       fill="#f7cd18"
       d="m42.5 59.6.4-2.2.2-.1.7-.8 1.5-3.6c.8-1.4.6-2.5-.8-3.5-.3-.2-.4-.9-.4-1.3 0-.2.9-.4 1.3-.4 2.6.1 4.2 1.4 4.3 3.7-.6 2-1 4.1-1.7 6-.3 1-1 1.9-1.8 2.9-1.1 0-2-.2-3-.4 0 .3 0 .6-.2 1.1l-.5-.7v-.7z"
       id="path75" />
    <path
       fill="#dfb717"
       d="M43.6 56.5c0 .3-.2.5-.5.8 0-.2.2-.5.5-.7z"
       id="path76" />
    <path
       fill="#2ca828"
       d="M29.9 15.1c.2 1.4.5 2.7 2.5 2.8.6 0 1.2.7 1.8 1.2-1 .3-2 .4-3 .5L29.5 17l-1 2h-.1c.2-1 .3-2 .7-3.3l.7-.6z"
       id="path77" />
    <path
       fill="#146e14"
       d="m35.4 10.2 3.6-1 3.7-.7.1.6-7.3 2.1c-.2-.3-.1-.6-.1-1z"
       id="path78" />
    <path
       fill="#0e5b0f"
       d="m31.1 19.7 3.3-.6.3-.4 1-.9c1 1.7-.8 2-1.7 2.4-.5.4-1.4.3-2.3.4a4 4 0 0 0-1 1l-.6.8-.3-1.7c0-.2.1-.2.2-.3.2 0 .2-.2.3-.3h.1l.5-.3h.2z"
       id="path79" />
    <path
       fill="#1e4208"
       d="m29.9 15.1-.7.4 1-2.3 4.7.2v.6l-4.2.6-.8.5z"
       id="path80" />
    <path
       fill="#2ca828"
       d="m29.5 20.3-1-1c0-.2 0-.3.2-.3l.8 1.1v.2z"
       id="path81" />
    <path
       fill="#0e5b0f"
       d="m29.8 20.6-.2-.2s-.1-.2 0-.2h.3v.3z"
       id="path82" />
    <path
       fill="#f5ce1a"
       d="m24.8 40 1.8 1.2 1.7-1c-.1 2.8 1.9 3 4 3.4-.2.3-.5.4-.8.5l-2.6 1.2-.9.4-2.3-1.5c0 .5 0 1.2-.2 1.9l-1.1-.1c-1.3-.4-2.5-.6-3 .8h-1.1c-.3-.3-.4-.5-.4-.7l1.5-1.1-.7-.5-1 1.5-.3-1.5.1-.3h.6l.1-.2s0-.3.2-.3l1.6.1 2-.8.7-.2-.8-.8v-1l.8-1z"
       id="path83" />
    <path
       fill="#f3ce19"
       d="M21 53c-.4-.1-1-.1-1.2-.4-.6-.8-1-1.7-1.5-2.6.1-.5.5-1 1-1.5.4.7.5 1.4.6 1.7l1.6-3.4h.1c.9 0 1.6 0 2.4.2l-.1.6-1.7 1.6L21 53z"
       id="path84" />
    <path
       fill="#e9b71a"
       d="M20.2 43.7v.3l-.4.2h-.3c0-.6-.3-1.4 0-1.8.7-.8 1.7-1.4 2.7-1.9-.2.8-.5 1.4-.9 2l-1 1.2z"
       id="path85" />
    <path
       fill="#f1ca1b"
       d="m19.2 44.5.4 1.5h.2l.4 1-.9.6-1.8-.3c.6-1 1-1.9 1.7-2.8z"
       id="path86" />
    <path
       fill="#e9b71a"
       d="M23.8 41c.2.3.2.6.2 1.2v.8c-.6.3-1.3.6-2 .7V43c.5-.8.8-1.6 1.1-2.3l.7.2z"
       id="path87" />
    <path
       fill="#a6870a"
       d="m19.3 47.7 1-.7 1-.2-1.4 3.4-.5-1.7c-.1-.3 0-.5 0-.8z"
       id="path88" />
    <path
       fill="#f5ce1a"
       d="M23 40.6c-.2.8-.5 1.6-1 2.3a1 1 0 0 1-.5-.3l.8-2c.3-.2.5-.1.8 0z"
       id="path89" />
    <path
       fill="#f3ce19"
       d="M19.4 55.5c.5.4.9.9 1.2 1.4-.5-.3-.8-.8-1.2-1.4zm-.3-.8s.2 0 .2.2l-.2-.2zm-1.2-2.3.2.2c-.1 0-.2 0-.2-.2z"
       id="path90" />
    <path
       fill="#f7d319"
       d="m31.6 44.1.8-.4 2 .6c0 1.2-.2 2.2-.4 3.5l-1.3.7-.9 2 1.8.6 2.2.6v.1c-.5.4-1.1.8-2 1.1l-3.7.4c-1.2-.4-2.2-1-3.2-1.5v-1.9h.1V49c.3-1.2.8-2 2.2-2.1 1.8-.2 2.5-1.2 2.4-2.8z"
       id="path91" />
    <path
       fill="#ddb31d"
       d="m32.8 48.4 1.2-.6.5-3.4 1.3 1.9V48l-3 .3z"
       id="path92" />
    <path
       fill="#fcd718"
       d="m43.7 62 2 .7c1.7.9 3.2 1.5 4.9.3.4-.3 1.3-.1 2-.2l2.6-.8 3.2-.3v.6l-1.5.8.4 1.8c-.2.2-.3.4-.6.5-.3.2-.5.3-.9.3-2.3 0-4.5.1-6.7.3-1.4 0-2.7.4-4.1.6l-3.3-1.1c-.3 0-.3 0-.5-.2l-.8-.7c.1-.4.1-.5.3-.7l3-2z"
       id="path93" />
    <path
       fill="#d5b226"
       d="M57.3 64.8 57 63l1.6-.8-.1-.6-3 .2c.2-.8.7-1.6 1.3-2.5.2-.1.4-.2.9-.2.4 0 .6 0 .7.2l1 2c.6 1.8-.7 2.6-2 3.4z"
       id="path94" />
    <path
       fill="#dfb717"
       d="M43.8 61.9c-1 .7-2 1.4-3.2 1.9-.2-.3-.2-.5 0-.7.5-.7 1-1.3 1.3-2l.6-.7.5.6.2-1.1 3 .5-2.4 1.5z"
       id="path95" />
    <path
       fill="#fad616"
       d="m42.5 60.3-.6.9c-.4.6-.8 1.2-1.5 1.9-.7-.5-1-1-1.5-1.5l-2.5.2-.2-.5 2.6-1.9-6.8-1a7 7 0 0 0-2-.3l-.8-2.9 2.9-.7c.2 0 .2 0 .3.2l.2.3 3 .6h1.7c.2 1.4.7 2.3 2.5 2.5.8.1 1.6 1 2.6 1.5l.1.7z"
       id="path96" />
    <path
       fill="#dfb717"
       d="M34.9 54.9h.3l.3.6c-1 0-1.9-.2-2.7-.5l2.1-.1z"
       id="path97" />
    <path
       fill="#f7cd18"
       d="M8.4 66.2a13 13 0 0 1-2-.7v-.9h1l.3.5.9.3 2.5-1.9c-1.1-.8-.3-1.1.8-1.3l1 .4A9.9 9.9 0 0 1 13 65c-.8.5-1.5 1-2.5 1.4H9l-.5-.2z"
       id="path98" />
    <path
       fill="#d1a31d"
       d="M11.7 62.1c-1 .3-1.7.6-.6 1.4a12 12 0 0 1-2.6 1.8l-.9-.3v-.4C8.5 63 9 61.3 11.7 62z"
       id="path99" />
    <path
       fill="#d09025"
       d="M13 64.7v-2c.3-.3.6-.3 1.2-.3l1-.4h.6c.8.5 1.6 1 2.2 1.8l-.5.5-2-.9-2.4 1.3z"
       id="path100" />
    <path
       fill="#e9b71a"
       d="m6.2 64.6.2.8h-1c.1-.3.4-.5.8-.8z"
       id="path101" />
    <path
       fill="#2bae28"
       d="m55.2 2.8 1 .3-.9.2-.1-.5zm-.4-.4.3.2s-.2 0-.3-.2z"
       id="path102" />
    <path
       fill="#2bb12c"
       d="M47.3 31c-.1-.5-.1-1 .1-1.8 2.9-1 3-.8 3.2 1.8l.4.8c-2.2 1.5-2.7 1.5-3.7-.7z"
       id="path103" />
    <path
       fill="#2a9d25"
       d="M51.1 31.7c-.2-.1-.4-.3-.4-.7.4-1 .8-1.7 1.3-2.3.3.6.4 1.3.6 1.9v.1l.2-.1c.4-.2 1-.3 1-.5 0-1.4 1-1.6 2.3-1.5h.4c.2.2.3.3.3.5l-.4 1.4-1.4.7-3.9.5z"
       id="path104" />
    <path
       fill="#2ab229"
       d="m37.4 27.5 2.7-3c2.7-1.7 5.5-1.6 8.5-1.7 1.1.2 2.2.3 3.2.6-.3.5-.6 1-1 1.2-4.3-.4-8.2-.6-11 3-.4.6-1.5.7-2.3 1v-.1l-.1-1z"
       id="path105" />
    <path
       fill="#259a22"
       d="M30.8 21.7c0-.4.3-.7.7-1 .1 1.1 1 1.3 2.1 1.2l6-.2c.6 0 1 .6 1.5 1-.6.3-1.1.3-1.6.4h-1.9l-1-.2c-1.2 0-2.4 0-3.5-.2-.8-.1-1.5-.6-2.3-1z"
       id="path106" />
    <path
       fill="#11530b"
       d="M39.6 23.2c.4-.2.9-.2 1.5-.3l4.3-.9c.4-.3.4-.5.5-.7l.1-.7h1.1l1.3 1.4v.7c-2.8.2-5.6.1-8.2 1.7-.3-.3-.4-.7-.6-1.2z"
       id="path107" />
    <path
       fill="#205b10"
       d="M37.2 27.5c.2.3.2.5.3 1-.3-.2-.6-.4-1-.9l.7-.1z"
       id="path108" />
    <path
       fill="#11530b"
       d="M36.6 23h.9l-.8.2c-.2 0-.1-.2 0-.3z"
       id="path109" />
    <path
       fill="#205b10"
       d="M37.5 28.7c.8-.4 2-.5 2.3-1 2.8-3.7 6.7-3.5 11-3l-3.4.4c-2.6 0-4.3 1-6 2.7-1.7 2-2 2.2.7 3.2v.4c-1-.2-1.8-.3-2.6-.6-.5-.3-.9-.9-1.5-1.4l-.5-.7z"
       id="path110" />
    <path
       fill="#212c04"
       d="M42.2 31.4c-.2 0-.2-.2 0-.4l1-.3.1.3c-.2.2-.6.3-1.1.4z"
       id="path111" />
    <path
       fill="#0e5b0f"
       d="M56.5 30.5c0-.4.1-.8.4-1.5 1-.4 2-.6 3-.8.2-.3.3-.5.3-.9l-.3-1.7h.3l.4.4a17.8 17.8 0 0 0 1.1 1c.7.4 1.4.6 2.2.8-.2.6-.6 1-1 1.6-1.8-.6-3.4-.9-4.9.7l-1.2.5h-.3z"
       id="path112" />
    <path
       fill="#2aa62a"
       d="M43.2 30.6a5 5 0 0 1-1 .3c-2.8-.9-2.5-1-.7-3a7 7 0 0 1 6-2.7c.6 1 1 1.8 1.2 2.6l-1.5.7-4 2.1z"
       id="path113" />
    <path
       fill="#146e14"
       d="M47.2 28.7c.4-.4.9-.7 1.7-.9l4-2.3h4c.6 0 .9 0 1.1.2-.7.2-1.4.6-2 .5-2.4-.2-3.2.2-4.2 2.4l-1.1 2.2c-.3-2.4-.4-2.5-3.3-1.7l-.2-.4z"
       id="path114" />
    <path
       fill="#d4c5c3"
       d="m33.3 112.3.2-.1c0 .1 0 .2-.2.1z"
       id="path115" />
    <path
       fill="#d3c0c0"
       d="M42.4 112.2c-.3-.1-.7-.3-1-.6.2 0 .6.3 1 .6zm1.4 2.3-.1-.3.1.3z"
       id="path116" />
    <path
       fill="#2ca828"
       d="M67.2 6.1c0 .3-.3.5-.6.7l-.5-1c.4 0 .7.1 1.1.3z"
       id="path117" />
    <path
       fill="#2ab72a"
       d="m70.6 12.5 1.6 1.2c0 .3-.1.4-.4.7L66 15.8c-.9-.9-1.7-1.3-3-.8l-2.4-1.5c.2-1.4.6-1.6 2.5-.8l.5-.3h1c2.2.2 4.1.2 6 .1z"
       id="path118" />
    <path
       fill="#146e14"
       d="m35.8 17.7-1 .9c.1-.8.2-1.8.9-2.2.8-.6 1.8-.4 3 .3.9.7 2.6.4 4 1L38 18l-2-.2z"
       id="path119" />
    <path
       fill="#042a04"
       d="M70.8 12.5h-6c1-.6 2-1.3 3-1.6 1.3-.5 2.7-.7 4.1-1l-.2 2-1 .6z"
       id="path120" />
    <path
       fill="#2aa62a"
       d="M49.7 18.2s-.2 0-.3-.2l-.1-1.4c.3 0 .7 0 1.2-.3l2.1-1.6v.4l1.3 1-.4 2.1-2.9-.5c-.5.1-.7.3-1 .5z"
       id="path121" />
    <path
       fill="#2ab72a"
       d="M49 16.6c.3.5.3.9.3 1.4l-2.1 2.4H46c-.7-2.2.4-3.7 3-3.8z"
       id="path122" />
    <path
       fill="#28a026"
       d="M60.6 13.7c.8.3 1.5.8 2.3 1.4-.6.8-1.2 1.4-2 2l-2.2-1.3.7-1 1.2-1.1z"
       id="path123" />
    <path
       fill="#063a06"
       d="m54.3 14.7 2.5-2.7 1.2 2.7-.1.4h-1.3l-2.3.3v-.7zm-.9-7.2v-.7c.9.2 1.8.4 2.5.8.4.3.5 1 .7 1.6-.6 0-1.3.1-1.8-.1-.6-.3-1-1-1.4-1.6z"
       id="path124" />
    <path
       fill="#219e21"
       d="m60.8 8.1 2.1.7c-.2.3-.3.7-.5.7h-2.5c.2-.5.5-1 .9-1.4z"
       id="path125" />
    <path
       fill="#28a026"
       d="m52.6 14.6-2 1.6-1.7-1 3.2-1.8.5 1.2z"
       id="path126" />
    <path
       fill="#1f8d1f"
       d="m40 15.3 3.9-1.4.3.3c-1 .7-2.1 1.4-3.3 2l-.8-1z"
       id="path127" />
    <path
       fill="#219e21"
       d="m47.5 9.5 2-.2c0 .2.2.3.4.4L48 11.4l-.7-.3c0-.5 0-1 .2-1.6z"
       id="path128" />
    <path
       fill="#28a026"
       d="M54.2 14.7v.7l-.3.5-1.2-.7 1.5-.5z"
       id="path129" />
    <path
       fill="#2ab72a"
       d="m58 15 .1-.2h1.1c0 .3-.2.6-.6 1L58 15zm-12.2 6.4-.2.6c0-.2 0-.4.2-.6z"
       id="path130" />
    <path
       fill="#2bae28"
       d="M57.3 5.4H57v-.1h.3z"
       id="path131" />
    <path
       fill="#2ca828"
       d="m30 15 .6-.3-.6.4z"
       id="path132" />
    <path
       fill="#219e21"
       d="M63.5 12.4c0 .1 0 .2-.3.3l.3-.3z"
       id="path133" />
    <path
       fill="#dfdbd8"
       d="M58.6 94.8h.6a1 1 0 0 1-.6 0zM55 97.9c-.2 0-.2-.2 0-.3v.3z"
       id="path134" />
    <path
       fill="#d5b226"
       d="m83.4 86.2-2.1 1.7a41 41 0 0 1-3.6.6l-4.1-.2-.8-.5c-.3-1.3-.3-2.6-.5-3.8 0-1.2.5-1.7 1.8-1.5 0 .1 0 .3-.2.3-.8.8-.8 4 0 4.5.7.4 1.8 0 2.6 0l1.9-.2c2 0 4.1.5 4.6-2.2l.3-.1v1.4z"
       id="path135" />
    <path
       fill="#f9d71a"
       d="m92 85.2-.7-1.4 1.5.6 3 1.5V87h-1.5L92 85.2z"
       id="path136" />
    <path
       fill="#d5b226"
       d="m84.3 83.3.3.7-1.1.8-.2-.2 1-1.3z"
       id="path137" />
    <path
       fill="#bd9c0d"
       d="m84.2 60.1 1.6 1.2-1.9 1.4 5 2.7-2.4-.7c-1.2-.3-2.4-.4-4-.6L80 64l-.3-.3c.8-.5 2.3-.3 1.3-2l3.4.3-.1-1.8z"
       id="path138" />
    <path
       fill="#c1a20d"
       d="M80 64c.7 0 1.5 0 2.4.2-.5 1.5-1 3.2-3.2 3.6h-.9l-1-1.4 2.6-1.7h.2-.1V64z"
       id="path139" />
    <path
       fill="#28a026"
       d="M82.3 22.3c-.5 0-.8 0-1.2-.2l2.5-1.8.6 1.5-2 .5z"
       id="path140" />
    <path
       fill="#1b6916"
       d="M86.4 23c0-.6 0-1 .2-1.6l1.3.3 1.7 1.1-3.2.1z"
       id="path141" />
    <path
       fill="#2aa62a"
       d="M89 21.6c-.5-.6-.8-1.2-1.2-2l1.4-.7.7 1.9c-.2.3-.5.5-1 .8z"
       id="path142" />
    <path
       fill="#28a026"
       d="m84 24.4-.1.7c-.3-.2-.4-.6-.5-1 .2 0 .4 0 .6.3zm-.7-.9c-.2 0-.5-.3-.7-.6l.7.6zm-.8-.8c-.1 0-.2 0-.3-.2 0 0 .2 0 .3.2z"
       id="path143" />
    <path
       fill="#c1a20d"
       d="m97.7 55-.8-1.3-1.3-.3c-.1-.2-.3-.4-.3-.7l1.5-.8.5-.1.4-3.8c1.3 1.8 2.6 3.7 1.4 6.3l-.4-1.3h-.3l-.3 2h-.4z"
       id="path144" />
    <path
       fill="#eecb1d"
       d="m97.7 48-.3 3.7c-.8-.3-1.4-.7-2.2-1.2l1.2-3.1 1.3.6z"
       id="path145" />
    <path
       fill="#cca90d"
       d="M94.2 53.3c-.4.8-1 1.5-1.6 2.3l-.4.1v-2.6l1.4-5.5h.2V52c0 .4.2.8.4 1.3z"
       id="path146" />
    <path
       fill="#d1b010"
       d="M92.1 53.1v1.7c-1 .3-2.2 1-2.4-.8a4 4 0 0 0-.4-.9l1.2.2c.5.2.9.1 1.3.1l.3-.3z"
       id="path147" />
    <path
       fill="#c1a20d"
       d="m97.7 48-1.2-.7c-1-1.2.1-1.3 1-1.5.5.3.7.4.8.7l-.6 1.1v.3z"
       id="path148" />
    <path
       fill="#f9d618"
       d="m98.5 46.4-.8-.6.7-1.2c.6.5 1 1.1 1.4 1.8a4 4 0 0 1-.5.3c-.4 0-.6-.2-.8-.3z"
       id="path149" />
    <path
       fill="#f7d61a"
       d="m95.5 53.4 1.3.2c-.3.6-.8 1-1.4 1.7l-.3-1.7c.1-.2.2-.2.4-.2z"
       id="path150" />
    <path
       fill="#eecb1d"
       d="m96.7 51.9-1.4.7c-.6-1-.6-1 1.4-.7z"
       id="path151" />
    <path
       fill="#f9d618"
       d="M95.4 44.9c.3-.3.8-.7 1.4-1a5 5 0 0 1-1.4 1z"
       id="path152" />
    <path
       fill="#e2c233"
       d="M91.3 46h.4c-.1.3-.4.5-.7.5l.3-.5z"
       id="path153" />
    <path
       fill="#b7ae23"
       d="M91.3 46c0 .2-.2.3-.3.5h-.8c-.1-.1-.1-.2 0-.4a3.5 3.5 0 0 1 1 0z"
       id="path154" />
    <path
       fill="#a6870a"
       d="M91.6 53.4h-1 1z"
       id="path155" />
    <path
       fill="#d1b010"
       d="m90.5 60-4.9-.8h-.2c1.2-.4 2.5-.8 3.7-1.4a6 6 0 0 1 1.7-.5l.1.1-.4 2.6zm.5-2.7.6-.4h.2c0 .2 0 .4-.2.4h-.7zm1.1-1.1v.6l-.3.1.3-.7zm.1-.4h.3s0 .2-.2.3v-.3z"
       id="path156" />
    <path
       fill="#f9d71a"
       d="m79.5 84.8.5-4.4c.2-1.4.2-2.8 2-3.6.2-.1.2-1.3 0-1.9-.1-.5-.7-1-1.2-1.6 1.3.4 2.7.8 3 2.3.3.7 4 2 4.9 1.8 1.2-.4 1.6.1 1.8 1.1l.8 5c-.6-.2-1-.6-1.6-1v.4c-1-.1-2 0-2.8-.4-1.2-.6-1.7 0-2.5.7l-1 1.4-.4.3c-.5 2.7-2.7 2.2-4.6 2.2l-1.9.1c-.8 0-2 .5-2.5.1-1-.5-.9-3.7 0-4.3 1 1.1 1.5 2.4 2.5 3 .5.4 2-.8 3-1.2M89 81l.8.5.1-.4c-.3 0-.6-.2-1-.6-.6-1.5-3.3-2.8-5.3-2.1L89 81m-.4-2.7c-.2 0-.4 0-.5.2v.3l.5-.5zm8.7 10.3-1.4-1.3c2.1.1 4.5 2 5 4-.5 0-.8-.2-1-.4 0 0-.1 0 0-.1L97.6 89a.9.9 0 0 0-.5-.4zm3 5.4v-.6l.9-1.3c1.3.6 1.6 1.3.3 2.3l-1.2-.3zm.3 2.3c.1-.4.3-1 .7-1.5l-.7 1.5z"
       id="path157" />
    <path
       fill="#f5ce1a"
       d="M78.3 67.8h.7-.7z"
       id="path158" />
    <path
       fill="#eecb1d"
       d="M90.9 57.4c.2-.1.4-.1.8 0l1-.1L95 56c1 1.2-.5 1.7-1 2.6a39 39 0 0 1-3.4 1.3l.3-2.6z"
       id="path159" />
    <path
       fill="#f5ce1a"
       d="M98.3 46.5c.4 0 .6.2 1 .3v.7l-1.5.1c0-.3.2-.7.5-1.1z"
       id="path160" />
    <path
       fill="#f7d61a"
       d="M97.6 55h.4c0 .2-.2.4-.4.5V55zm-5.1 2.2c-.1.1-.4.2-.7.1V57l.3-.1c.2 0 .2.2.4.3z"
       id="path161" />
    <path
       fill="#c1a20d"
       d="M96.6 58.3z"
       id="path162" />
    <path
       fill="#c7bbb5"
       d="m91.2 45.9-1 .1c0-.3.3-.7.6-1.1l.4 1z"
       id="path163" />
    <path
       fill="#c1a20d"
       d="m94.3 62-.4.5-.2-.2.5-.4h.1z"
       id="path164" />
    <path
       fill="#d1b010"
       d="m85.5 59.2-.5.2.3-.2h.2z"
       id="path165" />
    <path
       fill="#2ab72a"
       d="M77.4 27.1 77 29l-.3.4-2 1-1.8-3.2.1-1.2c-.1-.6-.3-.9-.5-1.2L70 22.2a26 26 0 0 1 2.8-.1c.9.3 1.8.5 1.8.8v4l.9-.2 2 .4zM52 28.7c.8-2.3 1.6-2.7 4-2.5.6 0 1.3-.3 2-.5l.2-.2.4-.3h1l.2.4c.2.6.3 1 .3 1.8l-.3.8-2.9.7c-.1 0-.2 0-.5-.3-.2-.1-.3 0-.4 0-1.2 0-2.2.1-2.3 1.5 0 .2-.5.3-1 .5l-.7-2zM53.9 16c0-.2.1-.3.3-.4l2.5-.4c.9 1.5 1.5 3 3.5 3v2.5c-1.8-.6-3.2-1-4.6-1.7l-.6-.9-.3.5-1.1-.4.3-2.2z"
       id="path166" />
    <path
       fill="#1a7719"
       d="M79.1 23.1a5 5 0 0 1-1.3 1.3l-1.6-.4c.1-.6.5-1.3.3-1.8-.8-1.7-2-2.5-4.6-3.2 3-1.9 6.5 0 7.2 4.1z"
       id="path167" />
    <path
       fill="#2ab72a"
       d="M56.8 25.5h-4.1a6 6 0 0 1-1.8-.8l1-1.3c.3-.2.5-.2.8-.2l2-1.1h.4l.4.8c.5.5 1 .8 1.3 1.3v1.3zM51.4 21c-.8-.2-1.4-.5-2-.8.3-.4.6-1 1-1.1.7-.1 1.5.2 2.3.3L51.4 21z"
       id="path168" />
    <path
       fill="#28a026"
       d="M65.5 23.2c0 .5-.3 1-.6 1.5-.8-.2-1.5-.5-2-1l-.2-.9c1.2-1.7 1.9-.2 2.8.4z"
       id="path169" />
    <path
       fill="#042a04"
       d="M61 17a68 68 0 0 0 2-1.8c1.3-.7 2.1-.3 3 .7v.7h-1l-.8.1-1.6.5-1.5.2-.2-.4z"
       id="path170" />
    <path
       fill="#219e21"
       d="m75.4 26.7-.9.3c0-1.4.2-2.7.1-4 0-.4-1-.6-1.6-1 .3-1.1 1.2-.8 1.8-.2.5.5.7 1.3 1 2.2l-.4 2.7z"
       id="path171" />
    <path
       fill="#28a026"
       d="M82.5 13.5c-1.2.8-2.3 1.4-3.6 2l-2.1-.9c2-.4 3.9-.8 5.7-1z"
       id="path172" />
    <path
       fill="#2a9d25"
       d="m75.5 26.7.3-2.6h.3c.6 0 1 .2 1.6.3a9 9 0 0 1-.1 2.6c-.8 0-1.3-.2-2.1-.3z"
       id="path173" />
    <path
       fill="#219e21"
       d="m81.7 9.3 1.4-.5c-.1.5 0 1-.2 1.4-.1.2-.5.4-.8.5l-1.8.5c.4-.5.7-1 1.3-1.5.2-.2.2-.3 0-.4z"
       id="path174" />
    <path
       fill="#106410"
       d="m60.9 17 .1.5-.7.7c-2 0-2.7-1.5-3.4-3l1-.1.6.7 2.4 1.2z"
       id="path175" />
    <path
       fill="#2ab72a"
       d="M68.6 17.8c-.2.8-.3 1.5-.8 2.3h-.5c-.4-.4-.8-.8-1.1-1.5.4-.4.8-.6 1.3-.8h1.1z"
       id="path176" />
    <path
       fill="#063a06"
       d="m75 15.9-2.2.8c-.7 0-1.2 0-1.6-.2l2.6-1.7 1.2 1z"
       id="path177" />
    <path
       fill="#2bae28"
       d="m67.4 17.8-1.2.7c-1 .2-2 .2-2.9.1l1.1-1.9.7.1.8.6 1.5.4zm7.6-2-1.3-1.1-1.7-.4.3-.6c.7-.2 1.3-.4 2-.4.7.5 1 1 1.5 1.4l-.7 1.1z"
       id="path178" />
    <path
       fill="#219e21"
       d="m56.8 24-1.2-1c1 .3 2-1.8 2.8.2-.5.4-1 .6-1.6.8z"
       id="path179" />
    <path
       fill="#0e5b0f"
       d="M52.5 23.2H52a49 49 0 0 1-3.3-.4c-.2-.2-.2-.4-.2-.7h1.2l1.9.3 1 .8z"
       id="path180" />
    <path
       fill="#2ab229"
       d="m52.7 23.2-1.2-.9-.1-.2h3.2l-1.9 1.1z"
       id="path181" />
    <path
       fill="#2bae28"
       d="M71.2 16.6h1.5a47.2 47.2 0 0 1-4 1l2.5-1z"
       id="path182" />
    <path
       fill="#2ab229"
       d="M56.8 24.2c.5-.4 1-.6 1.6-.9.3.5.4 1 .5 1.7 0 .2-.1.2-.4.1a1 1 0 0 0-.4.5H57c-.2-.5-.2-.9-.2-1.4z"
       id="path183" />
    <path
       fill="#2ab72a"
       d="M64.3 16.7c-.2.6-.6 1.2-1 1.8-.3-.3-.4-.7-.6-1.2.5-.3 1-.4 1.6-.6z"
       id="path184" />
    <path
       fill="#2bb729"
       d="M77.6 10c.4-.6 1-1.2 1.8-1.8.3 1.1 0 2-1.8 1.8zm-1.7 4.6a6 6 0 0 1-1.4-1.3c.3-.3.7-.4 1.1-.6.2.6.3 1.2.3 2z"
       id="path185" />
    <path
       fill="#2ab229"
       d="M61.4 26.7a2 2 0 0 1-.8-.6c.3 0 .6.3.8.6z"
       id="path186" />
    <path
       fill="#2aa62a"
       d="M54.8 18.6c0-.2 0-.3.2-.5l.6.8-.8-.3z"
       id="path187" />
    <path
       fill="#2ab72a"
       d="M51.2 22c.2 0 .2.2.2.3l-1.7-.1 1.5-.1z"
       id="path188" />
    <path
       fill="#28a026"
       d="M81.4 19.8h-.3.3z"
       id="path189" />
    <path
       fill="#2ab72a"
       d="M62.6 22.9c.2.2.2.4.2.6l-.2-.6zm-12.8-4.7c.1-.2.3-.4.6-.5 0 .2-.3.3-.6.5z"
       id="path190" />
    <path
       fill="#2bae28"
       d="M67.4 20.2h.3-.3z"
       id="path191" />
    <path
       fill="#2ab229"
       d="M55.1 22h-.3.3z"
       id="path192" />
    <path
       fill="#2bb729"
       d="M81.7 9.4c.1 0 .1 0 0 .2v-.2z"
       id="path193" />
    <path
       fill="#2ab229"
       d="M60 25.6c-.2 0-.2-.1-.2-.3 0 0 .2 0 .3.2l-.2.1z"
       id="path194" />
    <path
       fill="#1e4208"
       d="m82 26.4-.1.1-.2-.1h.3z"
       id="path195" />
    <path
       fill="#433206"
       d="M76.6 29.5c0-.2.1-.3.3-.4l.1.5-.4-.1z"
       id="path196" />
    <path
       fill="#2a9d25"
       d="M72.4 24.9c.2.2.4.5.5 1l-.5-1z"
       id="path197" />
    <path
       fill="#1f8d1f"
       d="m59.8 58.3-1.2.8c.4-1.2.8-2.4 1.5-3.7l.1 1.3-.4 1.6z"
       id="path198" />
    <path
       fill="#f3d119"
       d="m29 55.2 1 3c.7 0 1.3 0 1.9.2 1.2.6 2.5 1 3.7 1.4l-.2.6c-.5-.1-1-.3-1.6-.2-.4 0-.8.3-1.3.5-.9.3-1.9.8-2.8.7-1.7 0-3.1-.7-3-2.8-.3-.6-.7-1-1-1.3h-.4c-.2-.3-.3-.3-.5-.4-.1 0-.1-.2.1-.3l1.3-.7-1.3-1-.1-2 4.3 2.3z"
       id="path199" />
    <path
       fill="#bd9c0d"
       d="M32.7 60.7c.3-.2.7-.5 1-.5.6-.1 1.2 0 1.7.2l.2-.6-3.7-1.3c2.2.2 4.4.5 6.9 1l-2.6 1.8.2.5 2.5-.2c.4.6.8 1 1.4 1.5l.2.7c0 .3 0 .4-.2.7-.5 0-1-.2-1.4-.3l-.4.5 2.5 2.2.8-1.4 3.1 1.2c.2.3.2.5.2.8l-.2.3h-.3v-.1l-.4-.3-.1-.1c-.8 0-1.4.2-2 .4h-.5l-1.2.1-2.1-2.5-2.7-2.4-.7-1a3 3 0 0 1-1.4-.5.4.4 0 0 1-.2-.2l-.6-.5z"
       id="path200" />
    <path
       fill="#a6870a"
       d="M29.2 55.2c-1.5-.7-2.8-1.5-4.4-2.4V56l-.8-1.8-1.8-2.6s.2-.2.3-.1c1 .6 2 1.2 2.4-.4a39.2 39.2 0 0 0 1.7 2.3l.3-1.5c1 .5 2 1 3.2 1.4l1.8 1c-.8.4-1.6.7-2.7 1z"
       id="path201" />
    <path
       fill="#f3d119"
       d="M28.2 64.7H28a14 14 0 0 1-2.2-2.2c1 .3 1.7.6 2.4 1h.5l1.6-.4 1.4 2.5-2.1 2.8v-1a14 14 0 0 0-.6-2l-.8-.7z"
       id="path202" />
    <path
       fill="#fad916"
       d="M37.8 75v1.2l-1.2 2c0 .1-.1.2-.5.3l-2.4.5-.1-.8c-.5-2.2-.2-2.5 1.8-2l2.4-1.2zm-.8 9.8-1.6-1.6c-1.2-.2-2.3-.3-3.5-.3 0-.8.2-1.4.4-2 2.6.3 4.6 1.2 5.4 3.8H37z"
       id="path203" />
    <path
       fill="#8e6d06"
       d="M32.4 80.8c-.3.7-.5 1.3-.6 2.1-.5 0-1-.2-1.5-.4l.6-3.8c.6.6 2.8 0 1.5 2z"
       id="path204" />
    <path
       fill="#e2c233"
       d="M36.9 84.8h.8l.5.8c1.4.7 2.6 1 3.9 1.6 0 .2 0 .2-.2.3a148.4 148.4 0 0 1-4.4 0l-1-2.1.4-.6z"
       id="path205" />
    <path
       fill="#c1a20d"
       d="m28.2 63.4-2.4-1h-.4c-.6-1.2-1-2.3-1.3-3.5h.7l3.4 4.5z"
       id="path206" />
    <path
       fill="#fad916"
       d="M42.1 87.1c-1.3-.4-2.5-.8-3.8-1.4 1.3.3 1.9-.2 1.8-1.6l.4-.1 1.6 2.2v1z"
       id="path207" />
    <path
       fill="#352827"
       d="M18.5 98.8h-.4l-.2-.5a3 3 0 0 1 1-.6l2.2-.5.8.4.7.4s.1 0 0 .1v.5l-1.8.4c-.9-1.3-1.6-1.5-2.3-.2z"
       id="path208" />
    <path
       fill="#b7ae23"
       d="m21 97.1-1.9.5c.4-.6 1-1.1 1.7-1.8.3-.4.6-.5 1-.7l1.3.1-.1.6-1.3 1c-.3 0-.5.2-.7.3z"
       id="path209" />
    <path
       fill="#f3d119"
       d="m34.9 62 .5.9-2.3 2.4-.5-.4 2.3-2.8z"
       id="path210" />
    <path
       fill="#eac122"
       d="M41.6 71.6c.2.2.2.4.3.7l-2.6 2 2.3-2.7z"
       id="path211" />
    <path
       fill="#f3d119"
       d="M22.1 51.7c.7.7 1.3 1.5 1.9 2.4a3 3 0 0 1-1.5 0l-1-.8.6-1.6z"
       id="path212" />
    <path
       fill="#a6870a"
       d="m22.2 51.6-.8 1.7c0 .4-.2.4-.3.5v-.6a19 19 0 0 1 1-3.8l.3 2-.2.2z"
       id="path213" />
    <path
       fill="#f3d119"
       d="M24.8 58.7c-.2.2-.4.1-.7.1L22.5 57l.5-.4 1.8 2.2z"
       id="path214" />
    <path
       fill="#f3ce19"
       d="m21 53.9.5-.4.9.6.2 1.3-.4.2c-.4-.5-.8-1-1.1-1.7z"
       id="path215" />
    <path
       fill="#fad916"
       d="M40 78.2v.6c-.7 0-1.5-.3-2.4-.7.5-.4 1-.6 1.6-.8v.2l.7.7z"
       id="path216" />
    <path
       fill="#eac122"
       d="m39.2 77.2-1.7.8c-.2.2-.4.2-.7.2.2-.6.5-1.2 1-1.8l1.4.8z"
       id="path217" />
    <path
       fill="#e9b71a"
       d="m28.2 81.7-.8 1.6c0-1.8 0-1.8.8-1.6zm-.7-3.3 1 1.6-.6.3c-.2-.7-.4-1.3-.4-1.9z"
       id="path218" />
    <path
       fill="#eac122"
       d="M40.5 83.8c-.1.2-.2.2-.4.2a59 59 0 0 1 0-4.9l.4 4.7z"
       id="path219" />
    <path
       fill="#eecb1d"
       d="M24.8 56.2V55l1.4.8-1.2.6c-.2 0-.2-.1-.2-.3z"
       id="path220" />
    <path
       fill="#eac122"
       d="M33.7 79a15 15 0 0 1 2.3-.4 3 3 0 0 1-1 1c-.5 0-.7-.1-.9-.2a1 1 0 0 1-.4-.4z"
       id="path221" />
    <path
       fill="#f3d119"
       d="m20.8 59.6-.1-1.4c.3 0 .7.2 1 .6l-.2.8h-.7z"
       id="path222" />
    <path
       fill="#eecb1d"
       d="m25.7 57.4 1 1c-.5-.2-.7-.5-1-1z"
       id="path223" />
    <path
       fill="#eac122"
       d="M42.2 67.7c.5-.2 1.1-.4 1.9-.4l-1.9.4z"
       id="path224" />
    <path
       fill="#fad916"
       d="m31.6 78-.1-.7h.2l-.1.6z"
       id="path225" />
    <path
       fill="#eac122"
       d="M43.6 70a2 2 0 0 1-1 .8l1-.7zm-3.2-2a3 3 0 0 1 1.1-.2 3 3 0 0 1-1 .1z"
       id="path226" />
    <path
       fill="#f3ce19"
       d="M21.6 59.7c0-.3 0-.5.2-.8 0 .2 0 .5-.2.8z"
       id="path227" />
    <path
       fill="#fad916"
       d="M34.1 79.5c.2 0 .4 0 .7.2 0 .3-.3.5-.6.7l-.1-.3v-.6z"
       id="path228" />
    <path
       fill="#f3d119"
       d="m33.2 61.2.1.2-.3.1.2-.3z"
       id="path229" />
    <path
       fill="#c1a20d"
       d="M28.5 63.5h-.3.3z"
       id="path230" />
    <path
       fill="#f3ce19"
       d="M23.5 63.4h-.2c-.1 0 0-.1 0-.2 0 0 .2 0 .2.2z"
       id="path231" />
    <path
       fill="#f3d119"
       d="M22.2 61.7z"
       id="path232" />
    <path
       fill="#eac122"
       d="M34 80.2v.2-.2zm8.4-9.3s0 .2-.2.3c0 0 0-.2.2-.3zM44 69l-.1.3V69zm.9-1.2c0 .1 0 .2-.2.3V68c-.1-.1 0-.1.2-.1zm-.7-.4c.1 0 .2 0 .3.3l-.3-.3z"
       id="path233" />
    <path
       fill="#eecb1d"
       d="M24.9 57s.2 0 .3.2c0 0-.2 0-.3-.2z"
       id="path234" />
    <path
       fill="#eec129"
       d="M17.6 64.5c0-.3.2-.4.4-.6l.8 1.5a8.1 8.1 0 0 1-4.2 6.3c-1 .6-1.7 1.6-2.7 2.5-.2 0-.4-.3-.5-.6l3-3.4c2.2-1.4 3.4-3.2 3.2-5.7z"
       id="path235" />
    <path
       fill="#e9b71a"
       d="M10.2 66.5h.3-.3zm-1.8-.2c.1-.1.2 0 .4 0l-.2.1-.2-.1z"
       id="path236" />
    <path
       fill="#2ab82a"
       d="M29.9 20.1h-.3l-.8-1c.1-.7.4-1.2.8-2l1.5 2.5c0 .1-.1.2-.3.2l-.5.3H30z"
       id="path237" />
    <path
       fill="#2ca828"
       d="M29.9 20.2h.3l-.2.2-.1-.2zm.5-.2.3-.2s0 .2-.3.3z"
       id="path238" />
    <path
       fill="#e3be22"
       d="M31.5 44c.2 1.7-.5 2.7-2.3 2.9-1.4.1-1.9 1-2.3 2-.2-.2-.3-.6-.3-1 .1-.1 0-.2-.1-.4l-.8-1.4v-1.9c.7.5 1.4 1 2.4 1.5l1-.4 2.4-1.2m-1 1.4z"
       id="path239" />
    <path
       fill="#f7d319"
       d="m26.5 48 .3 1 .1.3v.6h-.1l-1.6 1.2-.3-.1-.5-3.5V46h1.1c.4.4.7.8 1 1.5v.4z"
       id="path240" />
    <path
       fill="#a6870a"
       d="m24.4 46-.1.6-.3.3h-2.4c.3-1.5 1.5-1.3 2.8-1z"
       id="path241" />
    <path
       fill="#f1ca1b"
       d="m19.8 46 1-1.5.6.5-1.5 1h-.1zm1.5-3.4c.3 0 .3.2.5.3v.7l-1.4.1a3 3 0 0 1 1-1.1z"
       id="path242" />
    <path
       fill="#a6870a"
       d="m24.1 43-.1-.7.8.5-.7.2z"
       id="path243" />
    <path
       fill="#a6883a"
       d="M28.9 45.3c-.1.2-.3.3-.6.4l.6-.4z"
       id="path244" />
    <path
       fill="#f1ca1b"
       d="M19.8 44.2h.3c.1 0 0 0 0 0h-.3z"
       id="path245" />
    <path
       fill="#e9c522"
       d="m24.4 47.6.4 3.3c-.3 1.8-1.2 1.2-2.3.6l-.2-2.2a7 7 0 0 1 1.7-1.7h.4z"
       id="path246" />
    <path
       fill="#f3d119"
       d="m24.4 47.5-.3.1-.1-.6.3-.2.1.7zm.8 3.8c.5-.5 1-1 1.6-1.3v1.8l-.2 1.6-1.4-2.1zm1.8-1.4v-.6.6z"
       id="path247" />
    <path
       fill="#eecb1d"
       d="m41.7 65.5-.7 1.4-2.5-2.2.4-.5 1.4.4.1.2.9.6h.4z"
       id="path248" />
    <path
       fill="#bd9c0d"
       d="M41.2 65.3a2 2 0 0 1-.8-.5c.3 0 .5.2.8.5z"
       id="path249" />
    <path
       fill="#e9b71a"
       d="m7.7 65 .6.3-.6-.2z"
       id="path250" />
    <path
       fill="#2ab229"
       d="M56 28.6s.2-.1.4 0H56z"
       id="path251" />
    <path
       fill="#2ab72a"
       d="M52.6 30.6v.1-.1z"
       id="path252" />
    <path
       fill="#2ab229"
       d="m50.7 24.7 1.8.9-3.5 2.2a16 16 0 0 1-1.4-2.6l3.1-.5zm9.2 3.5c0-.2 0-.4.3-.7l-.3.7z"
       id="path253" />
    <path
       fill="#eeecea"
       d="M60 106.4v-.1z"
       id="path254" />
    <path
       fill="#259a22"
       d="M58.5 92.3c.5-.2 1-.2 1.6-.2l-1.6.2zm-1.3-2c.3.2.6.5.9 1a3 3 0 0 1-.9-1zm4.8-.1a5 5 0 0 1 1-1.2 5 5 0 0 1-1 1.2z"
       id="path255" />
    <path
       fill="#289224"
       d="M71.2 16.5c-.9.4-1.7.7-2.5 1.2h-1.2c-.6 0-1-.2-1.6-.4 0-.3 0-.5.2-.7V16l5.7-1.6c.7 0 1.2 0 1.8.3l-2.4 1.8z"
       id="path256" />
    <path
       fill="#edc41e"
       d="m80 64.6.1.1H80z"
       id="path257" />
    <path
       fill="#a6870a"
       d="m88.8 80.9-5.3-2.4c2-.7 4.7.6 5.3 2.3 0 .1 0 0 0 0zm0 .1 1 .2-.1.4c-.3-.2-.6-.3-.8-.6 0-.1 0-.1 0 0z"
       id="path258" />
    <path
       fill="#fbd915"
       d="m88.5 78.5-.4.4-.1-.3c.1-.1.3-.2.5-.1z"
       id="path259" />
    <path
       fill="#146e14"
       d="m58.2 25.5.2-.4c0 .2 0 .3-.2.4z"
       id="path260" />
    <path
       fill="#2ab72a"
       d="m66 16.6-.2.7c-.2 0-.4-.2-.5-.5l.6-.2z"
       id="path261" />
    <path
       fill="#2aac2a"
       d="M62.6 77.3s-.2 0-.3-.2c.1 0 .2 0 .3.2z"
       id="path262" />
    <path
       fill="#1f315e"
       d="m21.9 96.7 1.2-1h.6l.7.6.1.5-1.3 1.1H23l-.3.2-.2-.2a2 2 0 0 0-.6-.3v-.9zm-3.3 2.2c.6-1.4 1.3-1.2 2 0-.6.2-1.3.1-2 0z"
       id="path263" />
    <path
       fill="#e9c522"
       d="M42.1 87.2v-.9c2.6-.2 3.1-.7 3.5-3.3 1 0 2 0 2.8.3l-.4 3.9-.7.6-2.2 1v-.3l-1.8-1.1c-.4 0-.6 0-1 .2h-.2v-.4z"
       id="path264" />
    <path
       fill="#eac122"
       d="M40 78c-.3 0-.5-.2-.8-.5.3 0 .5.3.7.6z"
       id="path265" />
    <path
       fill="#a6883a"
       d="m43.3 87.4 1.7 1c-.1.2-.3.2-.7.1-1.4-.2-2.7-.6-2.7 1.2l-1.1-1-2.9-1 4.3-.2.6.1c.4 0 .6 0 .8-.2z"
       id="path266" />
    <path
       fill="#001a4d"
       d="M21.7 96.7c.2.2.2.4.2.7-.3 0-.5 0-.8-.2 0-.2.3-.3.6-.5zm.3.9s.3 0 .5.2l-.6-.2z"
       id="path267" />
    <path
       fill="#a78950"
       d="M23.4 95.2c.2 0 .2.2.2.4l-.4.1v-.5h.2z"
       id="path268" />
    <path
       fill="#f3d119"
       d="M26.6 48v-.3.3z"
       id="path269" />
    <path
       fill="#f7d319"
       d="M30.5 45.5z"
       id="path270" />
    <path
       fill="green"
       d="m55 89.1.8-2v2.3c-.2.2-.3.2-.6 0l-.1-.3zm5.2-13.2v-3.7h.5v10h-.1l-.4-6.3zm-1-10.4c-.2 2.3-.7 4.8-1 7.2v4l-1.6-.9.7-9.5 2-.8zm6 13.6c.2.5.5 1 .6 1.7l-3.5.9.3-3.4V70c0-1.2.3-2.5.7-3.7l.1 5.5h.5l.2-3.1h.1v11.6l1-1.2zM56 85.2l.3-4.6c0-1.5 0-3 .2-4.6.6.1 1.1.4 1.6.7v-4l1.1-7.3.5-1.4 1.5 1.4.6 1 .5 10.5c0 .4.1.4.2.5v.8l-.3 3.5c1.4-.3 2.4-.6 3.4-.7l.4 1.8c-2.5 1.2-3 2.2-2 5.3-.2.4-.5.6-1 .8l-1 1.3a5 5 0 0 0-1 1.4l-.8.5h-1.7l-.4-.8a3 3 0 0 0-.9-1l-1.3-.7c-.1 0-.1 0 0-.2V87l.2-1.7m4.1-9.1.4 6.2v-10h-.4V76zm.8-22-.7 1.2.3-3.7h.4V54zm-1 9.6.6-1c.4.2.7.6 1 1.2 0 .4 0 .7-.2 1.1L60 63.9zm-.6-2.5c.3 0 .7.3 1.3.5.1.2 0 .4 0 .8l-.8 1.3-.6 1.5c-.7.3-1.3.5-2 .6 0-.3-.2-.5-.3-.7l.4-.5c1.3-1 2.6-1.7 2-3.5zm0-.2-1-1.8.3-.2 1.2-.8 2.4.8c-.3.9-.8 1.7-1.5 2.6a5 5 0 0 1-1.5-.6zm5.9 4.7a741.2 741.2 0 0 0 .1 10v2.8l-.2.4-.9 1.2V68.7h-.1l-.2 3.1h-.5l.1-5.6.5-.3h1.2zm-1.4-29.5zM61 54.2l.8.4V56c-.4.4-.9.7-1.5.7l-.1-1.4.8-1.1zm1-2.8zM60 39c-.4 3-1 5.7-1.6 8.6-.2-1.3-.2-2.6-.3-4.1.8-2.8 1.5-5.3.7-8-.2-.9-.2-1.8-.3-2.8l1.6 6.3zm6.6 47-.4 1c-.4.5-.9.8-1.4 1.2H64c-1-3.2-.6-4.2 2-5.2l.4 2.6v.3zm-2 2.3L63 90.5l-1.5 1.4c-.2 0-.3 0-.4-.3.2-.6.5-1 1-1.4l1.1-1.3.9-.6h.6zM57 30.8c.3-.3.6-.4 1-.6.3.7.5 1.3.6 2.2l-1-.6a2 2 0 0 1-.6-1zm1 18.8c0 .3 0 .7-.2 1l-.1-.9.3-.1zm.1 0c0-.5 0-1 .2-1.8l1.8-8.7h.3c1.3 1.2 1.7 2.5 1 4.3l.4 8-.1 3c-.4 0-.6-.1-.8-.4v-2.3h-.4a1160.1 1160.1 0 0 0-.5 3.7c-.7 1.3-1.1 2.5-1.6 3.8h-.8c0-2.7 0-5.4.2-8.3l.3-1.3zm-.5-14.2.4 7.9.2 4.6c0 .6 0 1.2-.2 1.7h-.4V35.4zm-.3-.6V32c.5.1.8.4 1.1.6v.2c.1 1 0 2 .3 2.8.8 2.7 0 5.2-.7 7.6l-.4-7.9-.3-.4zm7.1 23.6c0-.3 0-.6.2-1 0 .2 0 .6-.2 1zm-.7-22 .2-.6-.1 2c-.3-.2-.5-.7-.7-1.2 0-.2.2-.2.5-.2h.1zm.2 9.2a34 34 0 0 1-.8-4.2l.3-1.4.3-.2c.2 1.9.3 3.7.2 5.8zm-.8-9.2-.7-3.2-.8 2.2h-.4l1.6-5.9L64 28h.3l.9 1-.7 3v.9L64 34a18.5 18.5 0 0 1-.3 2.5h-.6zm-2.6 2.7.2-.8 2.6 1.7c0 .6-.3 1-.2 1.4l.8 4.3-.4 3 .4 5.1.4 2.6-1.7 2.4-.8-2.8v-1.6l.1-3c0-2.7-.3-5.3-.5-8.2.7-1.6.3-3-.9-4.1zm3.2-1.1v1.7c0 .1-.3.2-.4.1-1-.4-1.8-1-2.6-1.5l-.3.8-.4-.1-1.6-6.5v-.1l-.4-2.3c1.4-1.6 3-1.3 4.6-.5l-1.4 5.7.4.1.8-2.2.7 3.4.6 1.4zm0 27.8c0 .2 0 .3-.4.4a12 12 0 0 0-.9 3.8l.2 8-.1-.7-.3-.5-.4-10.3c0-.4-.3-.7-.5-1.2v-1.1l2.4 1.6zM61 92.7l-1.3 1.8c0 .2-.1.2-.4.3h-.7v-.2l-.9-1.3-.1-.8-1.7-2.4v-.5c.5.2 1 .4 1.3.7l1 1.2c0 .3.2.4.3.8.6 0 1.2 0 1.8-.2l.7-.4.4.3-.4.7zm3-33.5a5 5 0 0 1-1.6 0c-1-.3-1.9-.6-2.6-1l.5-1.3L62 56l.8 2.7 1.7-2.2c.2 0 .3.3.3.7l-.3 1.2-.4.7z"
       id="path271" />
    <path
       fill="#fff"
       d="M50.6 90.3h.2c.1 0 0 .1 0 .1h-.2zm4.3-1.2c.2 0 .2.1.2.3l-1.2.4a3 3 0 0 1 1-.7zm-7.6-1.3c.2.3.2.6.3 1-.7.2-1.5.1-2.4 0a11 11 0 0 1 2.1-1zm3.3 5-7.8-2.3c-.3-.1-.5-.5-1-.7-.2-1.9 1-1.5 2.3-1.3-.1.4-.3.6-1 1.2l7 2c.7.3 1.4.8 2 1.4l-1.5-.2zm2.6 1.6c0-.3 0-.6.3-1l2.4-3.2 1.6 2.2c-2-.6-2.8 1.4-4.3 2zm4.4-1c.4.3.7.7 1 1.2-1 1-2 1.7-3.3 2.4l-.6-.4 3-3.2zM40.8 111c-1.2 0-2.5-.2-2.8-1.6l4.4-.6-2.7 1.3 1 .9zm21.9-10.8c-.4-.3-.9-.8-1-1.3-.4-1-1.1-1.1-2.2-.7l.3-3.5c.3-.8.8-1.4 1.2-1.9l1.7 7.4zM34.2 112h1.5l3.8 1.4a28 28 0 0 1-3.6-.6c-.5-.1-1-.5-1.7-.8zm52.2-14.6c-.1-.1 0-.2.1-.3.1.1 0 .2-.1.3zm1.7-1.9-1-4 1.3 1.6c0 .9-.1 1.6-.3 2.4zm8.8.7h-2c-1-1-1.9-1.8-2.7-3v-3a5.9 5.9 0 0 0-6-4.2l-2.8.2.1-1.4 1.3-.7 6.2 1 1 .1 2.3 2 .8 2.4 1.7 4.6v2zm-53.2 19.1-.5 1.3-1.4-.1c-.3-.6-.4-1.1-.4-1.7l2.3.5zm-11.2-2.6-.5 1c-2.4-1-4.7-2-7.2-3.3l2.6-4c.5 1 .6 1.3.6 1.8-.2.5-.4.7-.7 1-2 .4-1 1.3-.3 1.6 1.8.8 3.7 1.3 5.5 1.9zM56 90l-2.4 3.1a2 2 0 0 1-1.2-.1 9 9 0 0 0-2.3-1.3l-6.8-2c.6-.7.8-1 1.2-1.1h.7v.1l2.7.2a43.7 43.7 0 0 1 3 1.4h.3c1-.3 1.8-.5 2.8-.6l1.3-.3.6.1.1.5zm-28.6 19.1c1 1.5 2.2 2.5 4.2 1.8 1.7-.6 2.3-2 2.3-3.6l.3-5.4c0-.2 0-.2.2-.2.2-.3.3-.5.3-.8v.1l.4-.4h.1l5.9-2.5.9-.2.7-.1c.4 0 .7-.2 1-.3l9.6-3.2c1.5-.6 2.2-2.6 4.4-1.7v.7l-3 3.3-1.7.9a343.4 343.4 0 0 0-7.6 3H45l-2.6.7c-.7 0-1.3-.2-1.6 0-1 .8-2.1 1.5-2.6 2.5-.2.5 1 1.5 1.6 2.3 2.2.6 3.4 0 5.4-2.4.2.3.8.7.8 1-.6 1.5-1 3.3-3.3 4l-4.6.7c.3 1.4 1.6 1.6 2.8 1.7l.4.4 1.3.8c.4.5.8 1 1.2 1.8v1.1c-.7 0-1.5-.3-2.4-.6l-1.7-1.2-4-1.4c-.4-.1-1 0-1.6 0l-.4.1c-.3 0-.3.1-.3.2l-.6.4c-2-.6-4-1.1-5.7-1.9-.7-.3-1.8-1.2.3-1.6zm36.3-15.9-.6-2.6a16 16 0 0 1 1.8-2.5l1.4-1h.2l1.4 2.3c1 .7 1.8 1.5 2.8 1.8 3 .9 6.2-.4 7.1-2.7 1.3-.3 2.3-.5 3.5-.6.4.6.5 1.2 1 1.3 1.5.7 3.2 1.2 4.8 1.7l.1.4.9 4.2-1.3 1.5c-.3 0-.4.2-.4.3L83.6 99c-1.1-.2-.8-1 0-1.8.8-1 2-2.2 1.8-2.7a7 7 0 0 0-3.1-2.5c-1.2-.6-2.8-.6-3.8.9-3 1.7-6 2.2-9.4 1.4l-5.5-1zm-.2 25.8a14 14 0 0 1-3.5-.5v-.1l.8-.8c1.2-1.2 1.5-2.3-.2-3.3l-3.1-2-5.3-3 .4-6.9 2-4.2.2-.4h.2c.2-.1.2-.2.3-.4a82.5 82.5 0 0 0 3.4-2.7c.3.1.5.1.8 0 .2-.1.2-.1.4 0l-.5 3.5c-1.2 1.5-2.4 2.8-3.3 4.3-1 1.5-.6 3 .8 4.2 1.2 1 2.2.6 3.1-.2l.7.4c-.2.7-.6 1.1-.8 1.7v1.4l2.9 1.8v.2c2 2.2 2.2 4.5.7 7zm20.9-4-1 .5c-.2.1-.4.1-.8 0-1.8-.7-3.6-1.2-3-3.4 0-.2-.4-.4-.6-.6l-.8.6c-.7.1-1.3.2-2 .1-1.4-.7-3-1-4.1-1.8-1.4-1-1-2 .7-2.3l-.2.6.4.9c1.6 1.3 3.3.9 4.6 0 .8-.5 1.2-2 1-3-.1-.7-1.5-1.2-2.4-1.8-.1 0-.3 0-.3-.2-.8-.3-1.5-.6-2.2-.7l-5-.4-.7-.2a2 2 0 0 1-.6-.2 4 4 0 0 0-.9-.3.8.8 0 0 1-.4-.2l-.3-.1v-.1l-1.7-.7c-.2 0-.2 0-.3-.2l-.4-.4-.1-.4-.4-.2-.1-.4-1.7-7.5.5-.8c.5-.5 1-.9 1.5-1.1l.6 2.7v2l.3.6a8.2 8.2 0 0 0 5.6 4.3l7.6 1.6.6.2c.3 0 .6.1.8.3l.3.2 1.6.7 1.7 1.8.4.5c.1.1.3.3.4.7l.4.8-.1 1.1-.3.8-1 2.3c-.1.4-.1.6 0 .8 0 .4.2.7.5 1.3.3.3.4.3.5.3l.4.1H85c-.1.5-.4.8-.6 1.2z"
       id="path272"
       style="stroke-width:0.1;stroke-dasharray:none;stroke:#000000;stroke-opacity:1" />
    <path
       fill="#191e33"
       d="M50.4 83.6v.6l-.9.9-1.3 2c0-1.2 0-2.5.2-3.8l2 .3z"
       id="path273" />
  </g>
</svg>
